<svg width="41" height="41" viewBox="0 0 41 41" fill="none" xmlns="http://www.w3.org/2000/svg">
<path d="M20.4789 2.43945C10.5356 2.43945 2.45752 10.4586 2.45752 20.3293C2.45752 29.2898 9.11521 36.7054 17.7862 37.9985L18.727 38.1398V24.0426H14.4696V21.1806H18.727V17.38C18.727 15.0396 19.2927 13.4982 20.2293 12.5311C21.1659 11.564 22.5497 11.0763 24.4755 11.0763C26.0153 11.0763 26.6144 11.1689 27.1841 11.2383V13.5809H25.1794C24.0419 13.5809 23.1087 14.2109 22.6244 15.05C22.14 15.8892 21.9892 16.8911 21.9892 17.912V21.179H27.0049L26.5585 24.041H21.9892V38.162L22.9187 38.0366C31.713 36.8526 38.5002 29.3774 38.5002 20.3293C38.5002 10.4586 30.4221 2.43945 20.4789 2.43945ZM20.4789 4.06581C29.5367 4.06581 36.8619 11.3376 36.8619 20.3293C36.8619 28.2414 31.1572 34.7484 23.6275 36.2133V25.6674H27.9632L28.9152 19.5527H23.6275V17.912C23.6275 17.0684 23.783 16.3125 24.0451 15.8585C24.3072 15.4044 24.5598 15.2073 25.1794 15.2073H28.8224V9.76598L28.112 9.67069C27.6207 9.60469 26.499 9.44992 24.4755 9.44992C22.2612 9.44992 20.3606 10.0487 19.0486 11.4035C17.7366 12.7582 17.0887 14.7754 17.0887 17.38V19.5543H12.8313V25.669H17.0887V36.1625C9.67999 34.6045 4.09583 28.1557 4.09583 20.3293C4.09583 11.3376 11.421 4.06581 20.4789 4.06581Z" fill="#F5F5F5"/>
</svg>
