<svg width="38" height="38" viewBox="0 0 38 38" fill="none" xmlns="http://www.w3.org/2000/svg">
<path d="M18.9618 1.50586C9.33636 1.50586 1.51685 9.26833 1.51685 18.8235C1.51685 21.8948 2.36534 24.7611 3.78042 27.2632L1.54499 35.1853C1.50928 35.312 1.50767 35.4459 1.54031 35.5735C1.57296 35.7011 1.63873 35.8179 1.73105 35.9124C1.82338 36.0069 1.93905 36.0757 2.06652 36.1119C2.19399 36.1482 2.3288 36.1507 2.45753 36.1191L10.7785 34.072C13.2236 35.3678 15.9981 36.1412 18.9618 36.1412C28.5871 36.1412 36.4067 28.3787 36.4067 18.8235C36.4067 9.26833 28.5871 1.50586 18.9618 1.50586ZM18.9618 3.01174C27.7673 3.01174 34.8897 10.0822 34.8897 18.8235C34.8897 27.5648 27.7673 34.6353 18.9618 34.6353C16.1387 34.6353 13.4948 33.9046 11.1963 32.6279C11.0282 32.5347 10.8306 32.5084 10.6437 32.5544L3.35674 34.347L5.3107 27.4264C5.33866 27.3286 5.34638 27.2262 5.33339 27.1254C5.32041 27.0245 5.28699 26.9274 5.23515 26.8397C3.8383 24.4883 3.03379 21.7525 3.03379 18.8235C3.03379 10.0822 10.1562 3.01174 18.9618 3.01174ZM12.6229 9.78821C12.1367 9.78821 11.4423 9.96778 10.8719 10.5779C10.5292 10.9444 9.10159 12.3253 9.10159 14.7529C9.10159 17.2839 10.8699 19.4679 11.0837 19.7485H11.0852V19.75C11.0649 19.7235 11.3566 20.1428 11.7459 20.6456C12.1352 21.1483 12.6796 21.8086 13.3636 22.5235C14.7314 23.9532 16.6547 25.6056 19.0417 26.6162C20.141 27.0808 21.0082 27.3614 21.6653 27.5662C22.8829 27.9457 23.992 27.888 24.8251 27.7662C25.4487 27.675 26.1345 27.3778 26.8131 26.9514C27.4917 26.5251 28.1568 25.9951 28.4501 25.1897C28.6602 24.6123 28.767 24.0787 28.8056 23.6397C28.8249 23.4202 28.8274 23.2264 28.813 23.047C28.7986 22.8677 28.814 22.7303 28.6456 22.4559C28.2925 21.8803 27.8926 21.8653 27.4753 21.6603C27.2435 21.5464 26.5834 21.2264 25.9213 20.9132C25.26 20.6004 24.6874 20.3233 24.3348 20.1985C24.112 20.1189 23.8399 20.0044 23.4474 20.0485C23.0549 20.0926 22.6672 20.3738 22.4415 20.7059C22.2276 21.0206 21.3664 22.0298 21.1038 22.3264C21.1004 22.3243 21.1231 22.3348 21.0194 22.2838C20.6947 22.1243 20.2975 21.9886 19.7099 21.6809C19.1222 21.3731 18.387 20.9187 17.5826 20.2147V20.2132C16.3852 19.1668 15.5465 17.853 15.282 17.4117C15.2998 17.3907 15.2798 17.4162 15.3175 17.3794L15.319 17.3779C15.5894 17.1135 15.8291 16.7977 16.0316 16.5662C16.3187 16.2378 16.4454 15.9484 16.5826 15.6779C16.8562 15.1389 16.7039 14.5459 16.5456 14.2338V14.2323C16.5565 14.2539 16.46 14.0424 16.356 13.7985C16.2517 13.5539 16.1187 13.2367 15.9767 12.8985C15.6928 12.2221 15.3757 11.4634 15.1872 11.0191V11.0176C14.965 10.4942 14.6645 10.1172 14.2717 9.93527C13.8788 9.75336 13.5317 9.80508 13.5176 9.80439H13.5161C13.2358 9.79155 12.9281 9.78821 12.6229 9.78821ZM12.6229 11.2941C12.9153 11.2941 13.2036 11.2976 13.445 11.3088C13.6934 11.3211 13.678 11.3221 13.6302 11.3C13.5817 11.2775 13.6475 11.2702 13.7887 11.6029C13.9733 12.038 14.292 12.7994 14.5768 13.4779C14.7193 13.8172 14.8526 14.1356 14.959 14.3853C15.0655 14.635 15.1232 14.7744 15.1901 14.9073V14.9088L15.1916 14.9103C15.2572 15.0388 15.2514 14.9565 15.2286 15.0014C15.0686 15.3168 15.0469 15.3942 14.885 15.5794C14.6384 15.8613 14.387 16.1757 14.2539 16.3059C14.1374 16.4194 13.9273 16.5963 13.7961 16.9426C13.6647 17.2894 13.7261 17.7653 13.9369 18.1206C14.2175 18.5936 15.1424 20.0879 16.5797 21.3441C17.4848 22.1362 18.3281 22.6604 19.0017 23.0132C19.6754 23.366 20.2241 23.572 20.3469 23.6323C20.6384 23.7756 20.957 23.8868 21.3275 23.8426C21.698 23.7985 22.0175 23.5753 22.2208 23.347L22.2223 23.3456C22.4929 23.041 23.2971 22.1295 23.683 21.5676C23.6993 21.5733 23.694 21.5689 23.8222 21.6147V21.6162H23.8237C23.8822 21.6369 24.6156 21.9627 25.2695 22.272C25.9234 22.5814 26.5871 22.9028 26.8028 23.0088C27.114 23.1617 27.2611 23.2613 27.299 23.2617C27.3016 23.328 27.3042 23.3998 27.2946 23.5088C27.268 23.8112 27.1866 24.2298 27.0235 24.6779C26.9436 24.8973 26.5275 25.3497 26.0028 25.6794C25.4781 26.009 24.8394 26.2419 24.6029 26.2764C23.8918 26.3805 23.0474 26.4184 22.1201 26.1294C21.4771 25.929 20.6754 25.6697 19.6373 25.2309C17.5319 24.3395 15.7425 22.8228 14.4642 21.4867C13.8251 20.8187 13.3131 20.1969 12.9488 19.7264C12.5852 19.2569 12.4264 19.0125 12.294 18.8397L12.2925 18.8382C12.0575 18.5297 10.6185 16.5427 10.6185 14.7529C10.6185 12.8587 11.5048 12.1159 11.9844 11.6029C12.2361 11.3336 12.5114 11.2941 12.6229 11.2941Z" fill="#F5F5F5"/>
</svg>
