<svg width="38" height="38" viewBox="0 0 38 38" fill="none" xmlns="http://www.w3.org/2000/svg">
<path d="M12.1356 2.25879C6.69918 2.25879 2.27539 6.65031 2.27539 12.047V25.6C2.27539 30.9967 6.69918 35.3882 12.1356 35.3882H25.7881C31.2245 35.3882 35.6483 30.9967 35.6483 25.6V12.047C35.6483 6.65031 31.2245 2.25879 25.7881 2.25879H12.1356ZM12.1356 3.76467H25.7881C30.4045 3.76467 34.1313 7.46426 34.1313 12.047V25.6C34.1313 30.1827 30.4045 33.8823 25.7881 33.8823H12.1356C7.51912 33.8823 3.79234 30.1827 3.79234 25.6V12.047C3.79234 7.46426 7.51912 3.76467 12.1356 3.76467ZM28.0635 8.28232C27.6612 8.28232 27.2754 8.44097 26.9909 8.72338C26.7064 9.00579 26.5466 9.38882 26.5466 9.7882C26.5466 10.1876 26.7064 10.5706 26.9909 10.853C27.2754 11.1354 27.6612 11.2941 28.0635 11.2941C28.4658 11.2941 28.8517 11.1354 29.1362 10.853C29.4207 10.5706 29.5805 10.1876 29.5805 9.7882C29.5805 9.38882 29.4207 9.00579 29.1362 8.72338C28.8517 8.44097 28.4658 8.28232 28.0635 8.28232ZM18.9618 10.5411C14.363 10.5411 10.6186 14.2582 10.6186 18.8235C10.6186 23.3888 14.363 27.1058 18.9618 27.1058C23.5607 27.1058 27.305 23.3888 27.305 18.8235C27.305 14.2582 23.5607 10.5411 18.9618 10.5411ZM18.9618 12.047C22.7409 12.047 25.7881 15.072 25.7881 18.8235C25.7881 22.575 22.7409 25.6 18.9618 25.6C15.1828 25.6 12.1356 22.575 12.1356 18.8235C12.1356 15.072 15.1828 12.047 18.9618 12.047Z" fill="#F5F5F5"/>
</svg>
