<svg xmlns="http://www.w3.org/2000/svg" viewBox="0 0 77.88 67.09"><defs><style>.cls-1{fill:#fff;}.cls-2{fill:none;}</style></defs><g id="Capa_2" data-name="Capa 2"><g id="vector"><path class="cls-1" d="M74.37,3.62A16.72,16.72,0,0,0,68.14.93,36.2,36.2,0,0,0,60.07,0,60,60,0,0,0,49.42,1c-2.69.58-17,2.69-33.33,18.15C1.38,33.85-.26,44,0,51.69A25.64,25.64,0,0,0,2.61,61.75a10.75,10.75,0,0,0,3.48,3.71c5.16,3.09,11.73,1,14.5-.12a29,29,0,0,0,9.82-6.16c.87-.81,6.71-5.71,13.16-19.85C44.16,38,56.87,13,58.29,10.51c2.19-3.36,2.92-4.76,4.92-6.1,1.77-1,4.55-.35,6.37,1,1.31,1.18,3,3.63,2.14,9.6-.74,5.4-3.38,7.46-5.81,9.43a29.2,29.2,0,0,1-8.56,4,24.62,24.62,0,0,1-5.11,1s-2.82-.16.32,1,7.85,3.26,9.58,6.13,2,3.5,1.49,8.93a19.74,19.74,0,0,1-3.93,11,18.92,18.92,0,0,1-8.26,6.74,18.34,18.34,0,0,1-6.5.92s-1.88,0-6-1.45c-3.28-1.3-4.67-2.61-4.28-1.52.33.93,1.45,2.52,4.52,4A21.43,21.43,0,0,0,52.66,66a27.53,27.53,0,0,0,8.62-3.87,25.49,25.49,0,0,0,6.23-6.32,22.94,22.94,0,0,0,3.9-12.58,10.11,10.11,0,0,0-4.3-8.49c-.87-.71-4.79-3-5.25-3.28-2.19-1.29-1.77-1.32-.61-1.64.65-.18,2.45-.59,5-1.35a17.7,17.7,0,0,0,6-3,16.36,16.36,0,0,0,5.6-11.86C78,7.86,75.83,4.82,74.37,3.62Zm-15.44.71c-1.66,1.22-3,2.09-6.61,6.35-1.26,1.56-5.13,5.23-11.41,18.57-4.33,9.21-6.35,15.11-8.67,19.21-3.91,7.11-7.47,10-9.41,11.64a13.07,13.07,0,0,1-8.09,3.3A8,8,0,0,1,9.46,62a13.77,13.77,0,0,1-4.31-7.74C2.81,43.69,9.27,34,9.7,33.08a66.19,66.19,0,0,1,9.59-12c1.87-2.14,10-9.47,17.63-12.71C46.85,3.62,58,3.68,59,3.68S59.87,3.63,58.93,4.33Z"/><path class="cls-2" d="M59,3.68c-.91,0-12.1-.06-22,4.68-7.6,3.24-15.76,10.57-17.63,12.71a66.19,66.19,0,0,0-9.59,12C9.27,34,2.81,43.69,5.15,54.25A13.77,13.77,0,0,0,9.46,62a8,8,0,0,0,5.28,1.41,13.07,13.07,0,0,0,8.09-3.3c1.94-1.59,5.5-4.53,9.41-11.64,2.32-4.1,4.34-10,8.67-19.21,6.28-13.34,10.15-17,11.41-18.57,3.64-4.26,5-5.13,6.61-6.35C59.87,3.63,59.89,3.62,59,3.68Z"/></g></g></svg>