<svg xmlns="http://www.w3.org/2000/svg" viewBox="0 0 513.58 196.24"><defs><style>.cls-1,.cls-3,.cls-4{fill:#fff;}.cls-2{fill:none;}.cls-3,.cls-4{stroke:#fff;stroke-miterlimit:10;}.cls-4{stroke-width:0.25px;}</style></defs><g id="Capa_2" data-name="Capa 2"><g id="vector"><path class="cls-1" d="M309.75,4.16c-1.68-1.37-4-2.25-7.15-3.09A41.36,41.36,0,0,0,293.35,0a69.41,69.41,0,0,0-12.23,1.16C278,1.83,261.67,4.24,242.88,22,226,38.84,224.12,50.5,224.45,59.32a29.7,29.7,0,0,0,3,11.54,12.57,12.57,0,0,0,4,4.26c5.92,3.53,13.46,1.19,16.64-.15a32.87,32.87,0,0,0,11.26-7.07c1-.93,7.7-6.55,15.1-22.77.68-1.49,15.27-30.22,16.89-33.07,2.52-3.86,3.35-5.46,5.65-7,2-1.14,5.22-.4,7.31,1.13,1.5,1.35,3.4,4.16,2.46,11-.86,6.19-3.88,8.56-6.67,10.83-2,1.64-6.69,3.67-9.83,4.54a27.48,27.48,0,0,1-5.85,1.11s-3.25-.17.36,1.16,9,3.75,11,7,2.26,4,1.71,10.25-2.26,9.57-4.5,12.66-5.55,6.29-9.48,7.73c-2.87,1.24-7.46,1-7.46,1s-2.16.06-6.87-1.66c-3.76-1.49-5.36-3-4.91-1.75.38,1.07,1.66,2.9,5.2,4.58,3.16,1.5,9.1,2.51,15.44.93a31.38,31.38,0,0,0,9.88-4.44A28.93,28.93,0,0,0,301.88,64a26.26,26.26,0,0,0,4.48-14.43,11.63,11.63,0,0,0-4.93-9.75c-1-.81-5.5-3.45-6-3.75-2.52-1.49-2-1.52-.71-1.89.75-.21,2.81-.68,5.74-1.54a20.45,20.45,0,0,0,6.91-3.45,18.74,18.74,0,0,0,6.43-13.6C314,9,311.43,5.53,309.75,4.16ZM292,5c-1.91,1.41-3.41,2.4-7.59,7.29-1.44,1.79-5.88,6-13.08,21.31-5,10.57-7.29,17.34-10,22-4.48,8.17-8.57,11.53-10.8,13.36a15,15,0,0,1-9.28,3.79,9.23,9.23,0,0,1-6.06-1.62,15.75,15.75,0,0,1-4.94-8.88C227.64,50.13,235.06,39,235.55,38a76.55,76.55,0,0,1,11-13.78c2.14-2.45,11.51-10.86,20.22-14.58,11.4-5.43,24.24-5.37,25.28-5.37S293.12,4.16,292,5Z"/><path class="cls-2" d="M292.06,4.22c-1,0-13.88-.06-25.28,5.37-8.71,3.72-18.08,12.13-20.22,14.58a76.55,76.55,0,0,0-11,13.78c-.49,1-7.91,12.18-5.22,24.3a15.75,15.75,0,0,0,4.94,8.88,9.23,9.23,0,0,0,6.06,1.62A15,15,0,0,0,250.61,69c2.23-1.83,6.32-5.19,10.8-13.36,2.67-4.7,5-11.47,10-22C278.57,18.26,283,14,284.45,12.25,288.63,7.36,290.13,6.37,292,5,293.12,4.16,293.14,4.16,292.06,4.22Z"/><path class="cls-3" d="M37.38,131.88a10.62,10.62,0,0,1-1.5,5.21,15.66,15.66,0,0,1-4.76,5c-.68.47-1.5,1-2.48,1.53s-2,1.11-3.16,1.67-2.33,1.11-3.59,1.63-2.52,1-3.79,1.39a38.42,38.42,0,0,1-3.75,1,17.18,17.18,0,0,1-3.44.37,6.91,6.91,0,0,1-1.39-.12,3.27,3.27,0,0,1-1.07-.44,4.3,4.3,0,0,1-.95-.88,13.93,13.93,0,0,1-1-1.41,6,6,0,0,1-1.77.93,6.11,6.11,0,0,1-1.88.3h-1a.84.84,0,0,1-.53-.19,2.27,2.27,0,0,1-.44-.48,2.45,2.45,0,0,1-.29-.61,2.16,2.16,0,0,1-.11-.65A11.44,11.44,0,0,1,1,142.66c.34-1.09.73-2.17,1.18-3.25.65-2,1.32-4.09,2-6.28s1.34-4.39,2-6.59S7.4,122.16,8,120s1.11-4.18,1.6-6.1l1-4.08q0-.11,0-.6c0-.32,0-.68-.09-1.07s-.06-.74-.09-1.07l0-.46.17-.6,0,0c.12-.42.28-.9.49-1.44a8.57,8.57,0,0,1,.77-1.51,5.64,5.64,0,0,1,1-1.18,1.73,1.73,0,0,1,1.17-.48q.6,0,1.53.09c.62.06,1.18.09,1.67.09a5.12,5.12,0,0,0,.69,0,5.4,5.4,0,0,0,.84-.17c.34-.09.79-.23,1.34-.41s1.27-.41,2.16-.72c1.34-.46,2.56-.86,3.67-1.17S28,98.56,29,98.36s2-.34,2.9-.44,1.9-.14,2.88-.14a18.57,18.57,0,0,1,3.61.35,10.05,10.05,0,0,1,3.09,1.15,6.21,6.21,0,0,1,2.16,2.07,5.72,5.72,0,0,1,.81,3.11,10,10,0,0,1-1.65,5.63,18,18,0,0,1-4.68,4.64,40.1,40.1,0,0,1-7.26,4q-4.23,1.84-9.44,3.64a58.84,58.84,0,0,1,7.16,1.49,22,22,0,0,1,5,2,8.52,8.52,0,0,1,2.92,2.64A6.11,6.11,0,0,1,37.38,131.88Zm-12-3.23-1.29-.25L22,128l-2.69-.44c-1-.15-1.87-.31-2.74-.46s-1.66-.3-2.37-.44-1.24-.26-1.57-.35q-1.34,4.32-2.33,8.28t-2,8l2.32.25,1.43.12c.41,0,.65.05.72.05a22.39,22.39,0,0,0,3.09-.54c1.13-.27,2.29-.61,3.5-1s2.43-.89,3.67-1.44,2.47-1.14,3.66-1.78a13.67,13.67,0,0,0,1.41-1,9.76,9.76,0,0,0,1.33-1.32,7.61,7.61,0,0,0,1-1.52,3.76,3.76,0,0,0,.38-1.66,3,3,0,0,0-1.47-2.44A11.11,11.11,0,0,0,25.43,128.65Zm-11.11-8.16c1.31-.42,2.69-.92,4.14-1.49s2.95-1.2,4.49-1.88,3.09-1.4,4.67-2.16,3.16-1.53,4.73-2.31h0a11.7,11.7,0,0,0,1.67-1.1,11,11,0,0,0,1.47-1.41,7.17,7.17,0,0,0,1.06-1.58,3.7,3.7,0,0,0,.4-1.64,2.51,2.51,0,0,0-.24-1,2.77,2.77,0,0,0-.78-1,4,4,0,0,0-1.39-.67,8,8,0,0,0-2.12-.24,20.83,20.83,0,0,0-4,.43,42.1,42.1,0,0,0-4.29,1.11A27,27,0,0,0,20.43,107a5.87,5.87,0,0,0-2.14,1.55,4.3,4.3,0,0,0-.3.77c-.13.4-.28.84-.44,1.32s-.33.94-.51,1.39a3.78,3.78,0,0,1-.51,1c-.05.23-.14.59-.28,1.07s-.31,1-.51,1.71-.42,1.38-.67,2.18S14.57,119.63,14.32,120.49Z"/><path class="cls-3" d="M43.92,134.06a4.08,4.08,0,0,1,.81-2.56,3.85,3.85,0,0,1,2.14-1.41c.26-.51.66-1.21,1.2-2.09a33.38,33.38,0,0,1,2-2.87A39.26,39.26,0,0,1,52.79,122a23.21,23.21,0,0,1,3.38-2.84,18.16,18.16,0,0,1,4-2.1,12.62,12.62,0,0,1,4.52-.81,11.43,11.43,0,0,1,3.55.5,6.9,6.9,0,0,1,2.5,1.37,5.49,5.49,0,0,1,1.47,2.09,6.87,6.87,0,0,1,.5,2.62,8.1,8.1,0,0,1-.32,2.28,7.9,7.9,0,0,1-1.83,3.45,14,14,0,0,1-3.15,2.58A19.72,19.72,0,0,1,63.45,133a42.66,42.66,0,0,1-4.26,1.23c-1.41.33-2.78.58-4.09.76s-2.45.31-3.41.4a7.22,7.22,0,0,0-.55,1.6,8.26,8.26,0,0,0-.23,1.88A3.62,3.62,0,0,0,52.53,142,7.74,7.74,0,0,0,57,143.17a13.09,13.09,0,0,0,3.16-.37,18.57,18.57,0,0,0,2.87-1,26.12,26.12,0,0,0,2.54-1.26c.8-.46,1.53-.91,2.18-1.36a23.81,23.81,0,0,1,2.41-1.42,4.54,4.54,0,0,1,2-.58c.59,0,1,.14,1.13.44a1.9,1.9,0,0,1,.24.93c0,.19,0,.37,0,.54a2.22,2.22,0,0,1-.06.44,6,6,0,0,1-2,3.41,23.78,23.78,0,0,1-7.51,4.12,26.82,26.82,0,0,1-8.21,1.23c-.56,0-1.22,0-2-.11a15.17,15.17,0,0,1-2.37-.42A12.48,12.48,0,0,1,49,146.9a7.51,7.51,0,0,1-2.13-1.59,7.44,7.44,0,0,1-1.51-2.42,9.25,9.25,0,0,1-.58-3.48,17.29,17.29,0,0,1,.45-3.69,1.55,1.55,0,0,1-1.26-1.66Zm22-9.73A1.09,1.09,0,0,0,66,124v-.32a1.61,1.61,0,0,0-.71-1.42,2.91,2.91,0,0,0-1.68-.48,6.33,6.33,0,0,0-3,.81,14.55,14.55,0,0,0-2.81,2,19.16,19.16,0,0,0-3.92,5.12,33.22,33.22,0,0,0,4.64-.69,18.29,18.29,0,0,0,3.68-1.19,9.68,9.68,0,0,0,2.53-1.62A4.2,4.2,0,0,0,65.93,124.33Z"/><path class="cls-3" d="M90.71,99.44a15.19,15.19,0,0,1,.56-2.61,6.07,6.07,0,0,1,1-2A2.05,2.05,0,0,1,94,94.06a4.3,4.3,0,0,1,1.25.21,5.61,5.61,0,0,1,1.3.58,3.75,3.75,0,0,1,1,.89A1.84,1.84,0,0,1,98,96.9a2.39,2.39,0,0,1-.11.65c-.07.25-.13.49-.17.72L88.92,133.5c-.35,1.41-.65,2.75-.88,4s-.41,2.32-.53,3.14v.85a21.57,21.57,0,0,1-.14,2.3,9.84,9.84,0,0,1-.53,2.32,4.91,4.91,0,0,1-1.07,1.79,2.34,2.34,0,0,1-1.77.72,3.27,3.27,0,0,1-1.66-.4,3.86,3.86,0,0,1-1.16-1,4.46,4.46,0,0,1-.66-1.35,4.87,4.87,0,0,1-.22-1.35,11.41,11.41,0,0,1,.11-1.39c.07-.55.16-1.13.26-1.73s.22-1.19.34-1.79.23-1.12.35-1.56l9.07-36C90.5,101.24,90.59,100.37,90.71,99.44Z"/><path class="cls-3" d="M108.85,99.44a15.19,15.19,0,0,1,.56-2.61,6.07,6.07,0,0,1,1-2,2.05,2.05,0,0,1,1.67-.79,4.3,4.3,0,0,1,1.25.21,5.61,5.61,0,0,1,1.3.58,3.75,3.75,0,0,1,1,.89,1.84,1.84,0,0,1,.42,1.16,2.39,2.39,0,0,1-.11.65c-.07.25-.13.49-.17.72l-8.79,35.23c-.35,1.41-.65,2.75-.88,4s-.41,2.32-.53,3.14v.85a19.23,19.23,0,0,1-.14,2.3,9.84,9.84,0,0,1-.53,2.32,4.91,4.91,0,0,1-1.07,1.79,2.33,2.33,0,0,1-1.77.72,3.27,3.27,0,0,1-1.66-.4,3.86,3.86,0,0,1-1.16-1,4.46,4.46,0,0,1-.66-1.35,4.83,4.83,0,0,1-.21-1.35,11.15,11.15,0,0,1,.1-1.39c.07-.55.16-1.13.26-1.73s.22-1.19.34-1.79.23-1.12.35-1.56l9.07-36C108.64,101.24,108.73,100.37,108.85,99.44Z"/><path class="cls-3" d="M116.62,134.17a25.22,25.22,0,0,1,1.64-4.55,27.61,27.61,0,0,1,2.9-4.87,34.4,34.4,0,0,1,4.3-4.82,36.9,36.9,0,0,1,5.82-4.39,9,9,0,0,1,1.62-.69,8.55,8.55,0,0,1,2.25-.44,4.79,4.79,0,0,1,3.69-1.47,7.58,7.58,0,0,1,4.62,1.38,10.65,10.65,0,0,1,3.11,3.78c.26.52.5,1,.72,1.51a10.1,10.1,0,0,1,.57,1.57,16.69,16.69,0,0,1,.37,1.77,15.42,15.42,0,0,1,.14,2.15,19.54,19.54,0,0,1-.88,5.66,25.91,25.91,0,0,1-2.5,5.62,31.36,31.36,0,0,1-3.92,5.26,32.42,32.42,0,0,1-5.11,4.52,15.36,15.36,0,0,1-4.2,2.12,16.34,16.34,0,0,1-5.15.76,13.82,13.82,0,0,1-4.7-.72,8.79,8.79,0,0,1-3.3-2.06,8.34,8.34,0,0,1-2-3.2,12.57,12.57,0,0,1-.65-4.14A19.73,19.73,0,0,1,116.62,134.17Zm5.84.46a12.1,12.1,0,0,0-.3,1.53,11.14,11.14,0,0,0-.09,1.38,7.54,7.54,0,0,0,.3,2.17,4.3,4.3,0,0,0,1,1.72,4.51,4.51,0,0,0,1.67,1.12,6.48,6.48,0,0,0,2.44.41,9.55,9.55,0,0,0,5-1.36,16.62,16.62,0,0,0,4.1-3.39,22.39,22.39,0,0,0,3-4.37,20.69,20.69,0,0,0,1.7-4.31c.21-.82.39-1.59.55-2.32a10,10,0,0,0,.22-2,4.4,4.4,0,0,0-.33-1.7c-.22-.53-.51-1.12-.86-1.78-.21-.39-.42-.81-.63-1.24s-.4-.87-.57-1.29a4.8,4.8,0,0,1-.59.86,2.89,2.89,0,0,1-1,.67,9.1,9.1,0,0,1-1.73.55,25.74,25.74,0,0,1-2.84.42,10.06,10.06,0,0,0-2.36,1.19,18.38,18.38,0,0,0-2.34,1.9,25.92,25.92,0,0,0-2.18,2.36,24.64,24.64,0,0,0-1.86,2.58,27.16,27.16,0,0,0-1.44,2.59A10.78,10.78,0,0,0,122.46,134.63Z"/><path class="cls-3" d="M221,148a2.87,2.87,0,0,1-1.31-.28,2.82,2.82,0,0,1-.93-.74,3.3,3.3,0,0,1-.56-1.05,3.86,3.86,0,0,1-.19-1.2,5.33,5.33,0,0,1,.28-1.46c.19-.62.43-1.32.72-2.09s.61-1.58,1-2.43.69-1.65,1-2.42.6-1.49.84-2.15.4-1.17.49-1.54.21-.93.35-1.51.3-1.23.48-1.92.35-1.42.52-2.18.36-1.53.55-2.3c-.33.07-.73.13-1.21.19l-1.53.16a21.39,21.39,0,0,0-2.29.32c-.75.14-1.52.29-2.3.47l-2.44.56-2.71.62c-1.41.3-2.81.64-4.22,1a17.21,17.21,0,0,1-4.39.56,2.37,2.37,0,0,1-1.3-.37,4.29,4.29,0,0,0-1.34-.54,27.26,27.26,0,0,0-1.34,2.4c-.42.86-.81,1.74-1.16,2.64s-.66,1.79-.95,2.67-.52,1.71-.73,2.48a10.88,10.88,0,0,0-.3,1.64c-.09.66-.16,1.34-.23,2s-.14,1.36-.21,2-.14,1.14-.21,1.51a3,3,0,0,1-.43,1,4.24,4.24,0,0,1-.77.93,4,4,0,0,1-1,.69,2.69,2.69,0,0,1-1.12.26,2.22,2.22,0,0,1-1.6-.58,4.39,4.39,0,0,1-1-1.44,7.74,7.74,0,0,1-.51-1.88,14.34,14.34,0,0,1-.14-1.86,20,20,0,0,1,.53-4.45,36.6,36.6,0,0,1,1.42-4.68,50.58,50.58,0,0,1,2.11-4.78q1.22-2.4,2.62-4.8,1.17-2.14,2.88-5c1.15-1.88,2.44-3.81,3.85-5.79s3-3.92,4.61-5.82a46.44,46.44,0,0,1,5.15-5.08,27.33,27.33,0,0,1,5.48-3.6,12.75,12.75,0,0,1,5.59-1.37,10.17,10.17,0,0,1,4.87,1,8.46,8.46,0,0,1,3.11,2.85,11.87,11.87,0,0,1,1.64,4.18,25.83,25.83,0,0,1,.47,5.07,42.86,42.86,0,0,1-.29,4.85c-.2,1.66-.45,3.29-.74,4.89s-.61,3.12-.95,4.6-.65,2.81-.93,4L229,133.22q-.08.21-.27.84c-.13.43-.29.94-.49,1.53s-.42,1.25-.67,1.94-.49,1.37-.74,2-.48,1.28-.7,1.84-.42,1-.58,1.37l0,0c-.17.61-.34,1.23-.53,1.86a6.68,6.68,0,0,1-.78,1.71,4,4,0,0,1-1.26,1.23A3.84,3.84,0,0,1,221,148Zm1.79-44a8,8,0,0,0-3.15.65,16.1,16.1,0,0,0-3.07,1.7,22,22,0,0,0-2.94,2.46c-.95.94-1.85,1.9-2.71,2.88s-1.66,2-2.41,3-1.43,1.91-2,2.76l-.37.54a7.25,7.25,0,0,0-.46.74c-.15.27-.3.55-.44.84s-.26.56-.35.79h3.62a40.67,40.67,0,0,0,4.5-.28c1.69-.19,3.36-.41,5-.67s3.17-.52,4.55-.79l3.13-.61a10.17,10.17,0,0,0,.26-1.23c.09-.52.16-1.09.23-1.73s.13-1.3.16-2,0-1.44,0-2.19,0-1.31-.07-2.1a8.16,8.16,0,0,0-.42-2.23,4.41,4.41,0,0,0-1.07-1.77A2.73,2.73,0,0,0,222.83,104Z"/><path class="cls-3" d="M244.27,136.7a30.16,30.16,0,0,1,.67-6.13q.67-3.19,1.41-6.1a9.62,9.62,0,0,1-1.87-.28,8,8,0,0,1-1.72-.67,4.06,4.06,0,0,1-1.26-1,2.2,2.2,0,0,1-.5-1.42,2.93,2.93,0,0,1,.15-.81,4.23,4.23,0,0,1,.4-1,2.67,2.67,0,0,1,.68-.81,1.52,1.52,0,0,1,1-.33h4.72a.91.91,0,0,0,.91-.58,9.62,9.62,0,0,0,.39-1.14c.3-1.36.59-2.54.86-3.54s.5-1.84.68-2.53.34-1.25.44-1.69a4.4,4.4,0,0,0,.16-1c0-.31,0-.6,0-.88s0-.67,0-1.16v-.35c0-.19,0-.44,0-.74a7.19,7.19,0,0,1,.34-1.3,3.34,3.34,0,0,1,.77-1.27,2.17,2.17,0,0,1,1.65-.6,3.16,3.16,0,0,1,1.62.39,3.23,3.23,0,0,1,1.09,1,4.7,4.7,0,0,1,.63,1.44,6.43,6.43,0,0,1,.21,1.62,7,7,0,0,1-.17,1.58l-2.57,9.84c1.27-.21,2.39-.41,3.38-.59l3-.57c1.08-.21,2-.41,2.79-.59l2-.48,1.42-.31a4.4,4.4,0,0,1,1-.13,7.49,7.49,0,0,1,1.14.09,3.6,3.6,0,0,1,1,.3,1.9,1.9,0,0,1,.72.6,1.65,1.65,0,0,1,.28,1,3.24,3.24,0,0,1-.33,1.49,4.18,4.18,0,0,1-.86,1.13,4.83,4.83,0,0,1-1.2.77,7,7,0,0,1-1.34.44c-.37.07-.86.17-1.46.31s-1.25.3-2,.46l-2.24.53-2.25.56c-1.07.28-2,.52-2.76.7s-1.41.33-1.95.43l-1.32.21a7.73,7.73,0,0,1-.82.07c-.45,1.33-.83,2.65-1.16,3.94s-.61,2.49-.83,3.6-.38,2.11-.49,3a17.41,17.41,0,0,0-.16,2.05,8.75,8.75,0,0,0,.18,1.81,4,4,0,0,0,.59,1.5,3.11,3.11,0,0,0,1.15,1,3.89,3.89,0,0,0,1.81.37,7.28,7.28,0,0,0,3.65-1,17.41,17.41,0,0,0,3.43-2.58,34.12,34.12,0,0,0,3.1-3.43c1-1.24,1.86-2.43,2.69-3.55a1.27,1.27,0,0,1,1.09-.64,2.59,2.59,0,0,1,.5.07,1.85,1.85,0,0,1,.58.25,1.62,1.62,0,0,1,.48.46,1.15,1.15,0,0,1,.19.67,2.26,2.26,0,0,1,0,.42,20.1,20.1,0,0,1-1.74,4.37q-1.19,2.2-2.41,4.42a7.48,7.48,0,0,1-1.11,1.51,16.8,16.8,0,0,1-1.49,1.42c-.54.46-1.1.89-1.69,1.3s-1.14.78-1.65,1.11a8.63,8.63,0,0,1-2.92,1.16,15.6,15.6,0,0,1-3.06.32,9.53,9.53,0,0,1-4.06-.83,8.71,8.71,0,0,1-3-2.25,9.86,9.86,0,0,1-1.84-3.32A12.64,12.64,0,0,1,244.27,136.7Z"/><path class="cls-3" d="M294.34,146.12a15,15,0,0,1,.24-2.44,20.59,20.59,0,0,0,.25-3.53c-.77.56-1.63,1.23-2.57,2s-1.91,1.51-2.92,2.21a21.07,21.07,0,0,1-3,1.78,6.5,6.5,0,0,1-2.8.72,6,6,0,0,1-2-.32,5.39,5.39,0,0,1-1.62-.84,10.44,10.44,0,0,1-2.69-2.95,7,7,0,0,1-.82-3.45,11.87,11.87,0,0,1,.15-1.83c.11-.63.27-1.36.48-2.18A30.59,30.59,0,0,1,281.63,125a31.43,31.43,0,0,1,8.07-8.07,10,10,0,0,1,3.72-1.67,19.48,19.48,0,0,1,3.69-.37,17.48,17.48,0,0,1,1.81.11l1.81.21c.54-.12,1-.2,1.32-.25a9.19,9.19,0,0,1,1.08-.07,4.67,4.67,0,0,1,1.75.29,2.8,2.8,0,0,1,1.13.75,3,3,0,0,1,.61,1.09,4.23,4.23,0,0,1,.2,1.28,5.56,5.56,0,0,1-.28,1.74l-.57,1.67-4.64,18.53c-.09,1-.17,1.94-.24,2.78a11.27,11.27,0,0,1-.43,2.35l-.26.8a2.77,2.77,0,0,1-.51.91,3.45,3.45,0,0,1-.88.76,2.65,2.65,0,0,1-1.37.31,8.81,8.81,0,0,1-1.74-.14,2.6,2.6,0,0,1-1-.4,1.19,1.19,0,0,1-.46-.64A3.13,3.13,0,0,1,294.34,146.12Zm-11.68-10.61a13.59,13.59,0,0,0-.29,1.4,10.29,10.29,0,0,0-.16,1.83,4.77,4.77,0,0,0,.28,1.7,1.17,1.17,0,0,0,1.23.76,6.09,6.09,0,0,0,2.76-.65,13.41,13.41,0,0,0,2.41-1.56c1-.82,2-1.74,3.07-2.76a40.9,40.9,0,0,0,3-3.22,31.33,31.33,0,0,0,2.46-3.46,14.56,14.56,0,0,0,1.56-3.54,19,19,0,0,0,.48-2.35,16.69,16.69,0,0,0,.19-2.39,2,2,0,0,0-.21-.9.82.82,0,0,0-.81-.44,9.49,9.49,0,0,0-3.46.67,15.58,15.58,0,0,0-3.36,1.79,20.51,20.51,0,0,0-3.08,2.66,26.86,26.86,0,0,0-2.65,3.27A25.25,25.25,0,0,0,284,131.9,21.72,21.72,0,0,0,282.66,135.51Z"/><path class="cls-3" d="M312.86,144q.47-2.46,1.06-5.41t1.23-6q.63-3,1.23-5.94c.4-1.94.74-3.73,1-5.34,0-.24,0-.44,0-.62v-.58a17.85,17.85,0,0,1,.14-2.18,17.31,17.31,0,0,1,.39-2,4.45,4.45,0,0,1,.86-1.81,2.09,2.09,0,0,1,1.53-.48,3,3,0,0,1,1.64.41,2.76,2.76,0,0,1,1,1.07,4.28,4.28,0,0,1,.46,1.53,14.63,14.63,0,0,1,.11,1.77c0,.33,0,.7,0,1.09s0,.72,0,.95c.65-.68,1.35-1.37,2.09-2.09a18.68,18.68,0,0,1,2.35-1.93,13.49,13.49,0,0,1,2.64-1.43,7.75,7.75,0,0,1,2.9-.56,6.64,6.64,0,0,1,1.18.11,11.14,11.14,0,0,1,1.18.28,12.15,12.15,0,0,1,1.45.47,6.29,6.29,0,0,1,1.46.83,7.52,7.52,0,0,1,1.95,2.2,5.15,5.15,0,0,1,.8,2.69,3.32,3.32,0,0,1-.22,1.14,4.11,4.11,0,0,1-.58,1.12,3.47,3.47,0,0,1-.86.85,1.89,1.89,0,0,1-1.09.33,4.61,4.61,0,0,1-1.46-.3,4.3,4.3,0,0,1-1.42-.79,3.29,3.29,0,0,1-.51-.6,9.06,9.06,0,0,1-.49-.77l-.42-.72a2.58,2.58,0,0,0-.3-.44l-.39,0-.39,0a6.84,6.84,0,0,0-3.41.91,16.07,16.07,0,0,0-3,2.24,24.41,24.41,0,0,0-2.58,2.81c-.79,1-1.47,1.89-2.06,2.69q-.71,2.85-1.56,6.06c-.58,2.15-1.15,4.39-1.71,6.74v.87c0,.71,0,1.42-.07,2.15a6.16,6.16,0,0,1-.42,1.93,3.18,3.18,0,0,1-1.11.9,3.7,3.7,0,0,1-1.67.37,2.59,2.59,0,0,1-2.21-1,3.58,3.58,0,0,1-.74-2.27A5,5,0,0,1,312.86,144Z"/><path class="cls-3" d="M342.43,135.58a27.42,27.42,0,0,1,1.21-3.8,25.86,25.86,0,0,1,1.88-3.76,25.86,25.86,0,0,1,6.3-7,33,33,0,0,1,3-2.13,24.76,24.76,0,0,1,3.18-1.74,20.85,20.85,0,0,1,3.25-1.18,12.48,12.48,0,0,1,3.22-.44,10.37,10.37,0,0,1,2.05.19,9.49,9.49,0,0,1,1.71.55q.35-1.23,1.88-6.61t3.74-15a4.38,4.38,0,0,1,1.09-1.58,2.46,2.46,0,0,1,1.69-.63,7.67,7.67,0,0,1,1.37.12,3,3,0,0,1,1.2.49,2.62,2.62,0,0,1,.84,1,3.7,3.7,0,0,1,.32,1.65l-7.07,28.23a29.27,29.27,0,0,0-.6,3.22c-.18,1.34-.36,2.77-.52,4.27s-.3,3-.39,4.44-.14,2.73-.14,3.78a16.65,16.65,0,0,1-.46,3.91,10.56,10.56,0,0,1-.44,1.42,2.55,2.55,0,0,1-.61,1,2.23,2.23,0,0,1-1,.53,6,6,0,0,1-1.46.15,4.7,4.7,0,0,1-1.58-.21,1.78,1.78,0,0,1-.84-.58,1.65,1.65,0,0,1-.34-.84c0-.32-.06-.66-.07-1s0-.74-.07-1.12a3.05,3.05,0,0,0-.3-1.11c-.28.19-.66.43-1.16.74l-1.49.93-1.42.88-1,.58q-.81.45-1.83,1a22.18,22.18,0,0,1-2.19,1,16.39,16.39,0,0,1-2.47.72,11.79,11.79,0,0,1-2.58.28,9.27,9.27,0,0,1-3.08-.52,7.67,7.67,0,0,1-2.67-1.62,8,8,0,0,1-1.88-2.76A10,10,0,0,1,342,139a14.17,14.17,0,0,1,.09-1.6A12.52,12.52,0,0,1,342.43,135.58Zm6.08-.29a7.87,7.87,0,0,0-.28,2,9.78,9.78,0,0,0,.18,1.92,3.77,3.77,0,0,0,.65,1.56,3.41,3.41,0,0,0,1.26,1.08,4.55,4.55,0,0,0,2.06.4,5,5,0,0,0,1.51-.25,11.17,11.17,0,0,0,1.6-.61c.53-.25,1-.5,1.48-.77l1.18-.72c.89-.59,1.71-1.17,2.47-1.73a14,14,0,0,0,2.06-1.83,11.42,11.42,0,0,0,1.6-2.19,11.68,11.68,0,0,0,1.11-2.8c.23-.94.44-1.79.61-2.56s.34-1.53.48-2.27.27-1.5.38-2.27.24-1.63.36-2.57a2.21,2.21,0,0,0-.48-.4,1.67,1.67,0,0,0-.9-.19,11.39,11.39,0,0,0-3.09.47,20.88,20.88,0,0,0-3.46,1.35,22.88,22.88,0,0,0-3.48,2.15,23.58,23.58,0,0,0-3.17,2.83,19.21,19.21,0,0,0-2.55,3.43A14.52,14.52,0,0,0,348.51,135.29Z"/><path class="cls-3" d="M381.63,134.06a4.08,4.08,0,0,1,.81-2.56,3.85,3.85,0,0,1,2.14-1.41c.26-.51.66-1.21,1.2-2.09a33.38,33.38,0,0,1,2-2.87,37.52,37.52,0,0,1,2.73-3.11,23.12,23.12,0,0,1,3.37-2.84,18.39,18.39,0,0,1,4-2.1,12.62,12.62,0,0,1,4.52-.81,11.43,11.43,0,0,1,3.55.5,6.9,6.9,0,0,1,2.5,1.37,5.62,5.62,0,0,1,1.48,2.09,7.06,7.06,0,0,1,.49,2.62,8.1,8.1,0,0,1-.32,2.28,7.9,7.9,0,0,1-1.83,3.45,14.19,14.19,0,0,1-3.14,2.58,20.07,20.07,0,0,1-3.94,1.85,42.66,42.66,0,0,1-4.26,1.23c-1.41.33-2.78.58-4.09.76s-2.45.31-3.41.4a7.78,7.78,0,0,0-.55,1.6,8.23,8.23,0,0,0-.22,1.88,3.62,3.62,0,0,0,1.61,3.16,7.74,7.74,0,0,0,4.47,1.13,13.09,13.09,0,0,0,3.16-.37,18.57,18.57,0,0,0,2.87-1,27.5,27.5,0,0,0,2.55-1.26c.79-.46,1.52-.91,2.18-1.36a22.68,22.68,0,0,1,2.4-1.42,4.58,4.58,0,0,1,2-.58c.58,0,1,.14,1.12.44a1.91,1.91,0,0,1,.25.93c0,.19,0,.37,0,.54a3.62,3.62,0,0,1-.05.44,6,6,0,0,1-.71,1.83,5.63,5.63,0,0,1-1.33,1.58,23.78,23.78,0,0,1-7.51,4.12,26.82,26.82,0,0,1-8.21,1.23c-.56,0-1.22,0-2-.11a15.09,15.09,0,0,1-2.38-.42,12.48,12.48,0,0,1-2.42-.91,7.51,7.51,0,0,1-2.13-1.59,7.44,7.44,0,0,1-1.51-2.42,9.25,9.25,0,0,1-.58-3.48,16.73,16.73,0,0,1,.46-3.69,1.55,1.55,0,0,1-1.27-1.66Zm22-9.73a1.09,1.09,0,0,0,.07-.32v-.32a1.61,1.61,0,0,0-.71-1.42,2.89,2.89,0,0,0-1.68-.48,6.3,6.3,0,0,0-3,.81,14.31,14.31,0,0,0-2.82,2,17.85,17.85,0,0,0-2.33,2.61,18,18,0,0,0-1.59,2.51,33.22,33.22,0,0,0,4.64-.69,18.29,18.29,0,0,0,3.68-1.19,9.68,9.68,0,0,0,2.53-1.62A4.2,4.2,0,0,0,403.64,124.33Z"/><path class="cls-3" d="M417.81,133.89a33.09,33.09,0,0,1,2-5.66,37.28,37.28,0,0,1,3.18-5.71,34,34,0,0,1,4.24-5.1,21.85,21.85,0,0,1,5.19-3.82,7.8,7.8,0,0,1,2-.74,10.25,10.25,0,0,1,2.21-.24,10.58,10.58,0,0,1,2.17.21,4.75,4.75,0,0,1,1.72.7,3.57,3.57,0,0,1,1.14,1.27,3.93,3.93,0,0,1,.42,1.9,6.29,6.29,0,0,1-.24,1.7,5.05,5.05,0,0,1-.74,1.55,4,4,0,0,1-1.23,1.11,3.42,3.42,0,0,1-1.72.42,3.72,3.72,0,0,1-1.43-.28,11.31,11.31,0,0,1-1.25-.64l-.59-.37a4.79,4.79,0,0,0-.67-.29,11.38,11.38,0,0,0-2.66,1.67,18.65,18.65,0,0,0-2.32,2.3,22.65,22.65,0,0,0-2,2.71c-.59,1-1.13,1.92-1.61,2.88a27.27,27.27,0,0,0-1.23,2.83c-.34.92-.62,1.77-.83,2.55-.16.56-.31,1.2-.44,1.91a11.79,11.79,0,0,0-.19,2.1,7.15,7.15,0,0,0,.12,1.33,3.21,3.21,0,0,0,.44,1.13,2.31,2.31,0,0,0,.84.77,2.76,2.76,0,0,0,1.31.28,9.24,9.24,0,0,0,2.44-.32,17.85,17.85,0,0,0,2.37-.8,19.35,19.35,0,0,0,2.27-1.15q1.11-.65,2.16-1.32c.45-.28.89-.57,1.34-.87s.86-.58,1.26-.81a10,10,0,0,1,1.11-.58,2.13,2.13,0,0,1,.9-.23,2,2,0,0,1,1,.26,1,1,0,0,1,.46.9,3,3,0,0,1-.21,1,9.13,9.13,0,0,1-1.34,2.46,12,12,0,0,1-1.88,2,16.1,16.1,0,0,1-2.21,1.53q-1.19.67-2.34,1.23a20.82,20.82,0,0,1-4.41,1.74,15.27,15.27,0,0,1-3.75.58,7.56,7.56,0,0,1-1.16-.1,5.54,5.54,0,0,1-1.16-.32,8.8,8.8,0,0,1-4.15-3.31,9.12,9.12,0,0,1-1.3-4.92,18.1,18.1,0,0,1,.2-2.58A23,23,0,0,1,417.81,133.89Z"/><path class="cls-3" d="M447.79,134.06a4.08,4.08,0,0,1,.81-2.56,3.88,3.88,0,0,1,2.15-1.41c.25-.51.65-1.21,1.19-2.09a33.67,33.67,0,0,1,2-2.87,35.57,35.57,0,0,1,2.72-3.11,22.69,22.69,0,0,1,3.38-2.84,18.16,18.16,0,0,1,4-2.1,12.58,12.58,0,0,1,4.52-.81,11.43,11.43,0,0,1,3.55.5,6.85,6.85,0,0,1,2.49,1.37,5.51,5.51,0,0,1,1.48,2.09,6.86,6.86,0,0,1,.49,2.62,9,9,0,0,1-2.14,5.73,14,14,0,0,1-3.15,2.58,20.07,20.07,0,0,1-3.94,1.85,42.48,42.48,0,0,1-4.25,1.23c-1.42.33-2.78.58-4.1.76s-2.45.31-3.41.4A7.26,7.26,0,0,0,455,137a8.26,8.26,0,0,0-.23,1.88,3.62,3.62,0,0,0,1.62,3.16,7.68,7.68,0,0,0,4.46,1.13,13.17,13.17,0,0,0,3.17-.37,18.44,18.44,0,0,0,2.86-1,27.5,27.5,0,0,0,2.55-1.26c.8-.46,1.52-.91,2.18-1.36a22.76,22.76,0,0,1,2.41-1.42,4.51,4.51,0,0,1,2-.58c.59,0,1,.14,1.12.44a1.8,1.8,0,0,1,.25.93c0,.19,0,.37,0,.54a3.62,3.62,0,0,1-.05.44,6,6,0,0,1-.7,1.83,5.66,5.66,0,0,1-1.34,1.58,23.78,23.78,0,0,1-7.51,4.12,26.76,26.76,0,0,1-8.2,1.23c-.57,0-1.23,0-2-.11a15.17,15.17,0,0,1-2.37-.42,12.81,12.81,0,0,1-2.43-.91,7.51,7.51,0,0,1-2.13-1.59,7.61,7.61,0,0,1-1.51-2.42,9.45,9.45,0,0,1-.58-3.48,16.73,16.73,0,0,1,.46-3.69,1.56,1.56,0,0,1-.86-.48A1.6,1.6,0,0,1,447.79,134.06Zm22-9.73a.84.84,0,0,0,.07-.32v-.32a1.6,1.6,0,0,0-.7-1.42,2.92,2.92,0,0,0-1.69-.48,6.33,6.33,0,0,0-3,.81,14.25,14.25,0,0,0-2.81,2,17.93,17.93,0,0,0-2.34,2.61,17,17,0,0,0-1.58,2.51,33.45,33.45,0,0,0,4.64-.69,18.18,18.18,0,0,0,3.67-1.19,9.51,9.51,0,0,0,2.53-1.62A4.12,4.12,0,0,0,469.8,124.33Z"/><path class="cls-3" d="M484.57,144q.45-2.46,1.05-5.41t1.23-6q.63-3,1.23-5.94c.4-1.94.74-3.73,1-5.34,0-.24,0-.44,0-.62v-.58a16.06,16.06,0,0,1,.14-2.18,15.47,15.47,0,0,1,.38-2,4.31,4.31,0,0,1,.87-1.81,2.05,2.05,0,0,1,1.52-.48,3,3,0,0,1,1.64.41,2.86,2.86,0,0,1,1,1.07,4.49,4.49,0,0,1,.45,1.53,14.63,14.63,0,0,1,.11,1.77c0,.33,0,.7,0,1.09s0,.72,0,.95c.65-.68,1.35-1.37,2.09-2.09a18.08,18.08,0,0,1,2.36-1.93,13.7,13.7,0,0,1,2.63-1.43,7.79,7.79,0,0,1,2.9-.56,6.64,6.64,0,0,1,1.18.11,10.59,10.59,0,0,1,1.18.28,12.27,12.27,0,0,1,1.46.47,6.5,6.5,0,0,1,1.46.83,7.81,7.81,0,0,1,1.95,2.2,5.23,5.23,0,0,1,.79,2.69,3.55,3.55,0,0,1-.21,1.14,4.41,4.41,0,0,1-.58,1.12,3.85,3.85,0,0,1-.86.85,1.94,1.94,0,0,1-1.09.33,4.56,4.56,0,0,1-1.46-.3,4.25,4.25,0,0,1-1.43-.79,3.29,3.29,0,0,1-.51-.6c-.17-.25-.34-.51-.49-.77l-.42-.72a2.58,2.58,0,0,0-.3-.44l-.39,0-.38,0a6.81,6.81,0,0,0-3.41.91,15.81,15.81,0,0,0-3,2.24,26.36,26.36,0,0,0-2.58,2.81c-.79,1-1.47,1.89-2.06,2.69q-.7,2.85-1.56,6.06c-.58,2.15-1.14,4.39-1.71,6.74v.87c0,.71,0,1.42-.07,2.15a5.65,5.65,0,0,1-.42,1.93,3.18,3.18,0,0,1-1.11.9,3.67,3.67,0,0,1-1.67.37,2.59,2.59,0,0,1-2.21-1,3.64,3.64,0,0,1-.74-2.27A4.58,4.58,0,0,1,484.57,144Z"/><path class="cls-4" d="M197.56,173.87a17.93,17.93,0,0,1,.21,2.76c0,.19,0,.44,0,.75a1.62,1.62,0,0,1-.37.06,1.23,1.23,0,0,1-.29,0,6.25,6.25,0,0,0-2.41-3.15,7.39,7.39,0,0,0-4.13-1.1,7,7,0,0,0-2.2.3,9.25,9.25,0,0,0-2.78,1.49,9,9,0,0,0-2,2.28,11.32,11.32,0,0,0-1.31,3.2,15.54,15.54,0,0,0-.48,3.84,14.66,14.66,0,0,0,1.14,6.19,7.21,7.21,0,0,0,3.13,3.48,8.59,8.59,0,0,0,4,1l.82,0a13.08,13.08,0,0,0,1.92-.33,9,9,0,0,0,2.12-.87,6.91,6.91,0,0,0,1.63-1.41,8.69,8.69,0,0,0,1.36-2.11l.21-.07a.6.6,0,0,1,.27.1c0,.28,0,.46,0,.54-.49,2-.85,3.32-1.07,4a5.58,5.58,0,0,0-.7.21,17.77,17.77,0,0,1-5.5.7,17,17,0,0,1-4.16-.38,17.41,17.41,0,0,1-3-1.17,9.49,9.49,0,0,1-4.84-5.43,12.32,12.32,0,0,1-.76-4.36,11.56,11.56,0,0,1,.6-3.91,13.73,13.73,0,0,1,1.85-3.39,11.69,11.69,0,0,1,2.94-2.85,11.23,11.23,0,0,1,3.77-1.61,20.79,20.79,0,0,1,4.13-.31,12.94,12.94,0,0,1,3.68.51A7.06,7.06,0,0,1,197.56,173.87Z"/><path class="cls-4" d="M199.41,194.72a.93.93,0,0,1,.43-.14h.83a6.8,6.8,0,0,0,1.6-.25,2.64,2.64,0,0,0,1-1.15,41.74,41.74,0,0,0,2.06-5.06q.54-1.56.69-1.89c.29-.7.57-1.43.84-2.2l1.65-4.61q.39-1.08,1.87-5c.24-.66.54-1.53.89-2.63l.52,0h.62a25.32,25.32,0,0,1,1.33,3.21c.21.6.56,1.51,1,2.71l2.66,7.19,1.43,3.9c.75,2.22,1.24,3.58,1.47,4.09a3,3,0,0,0,.65,1,2.41,2.41,0,0,0,.66.21l.8.21a6.55,6.55,0,0,1,1.13.39,1.17,1.17,0,0,1,.07.29,1.31,1.31,0,0,1,0,.27h-.8c-.59,0-1.65,0-3.16-.05l-1.76,0-2.12,0-.43,0-.38,0h-.39a.8.8,0,0,1-.35-.11,1.27,1.27,0,0,1,.09-.47,1.1,1.1,0,0,1,.38-.12l1.85-.12a3.36,3.36,0,0,0,1.09-.2,1.57,1.57,0,0,0,.1-.47,7.73,7.73,0,0,0-.45-1.63c-.21-.58-.4-1.14-.56-1.67s-.78-2.25-1.87-5.18a6.9,6.9,0,0,0-1.26-.13l-3.76,0-1.11,0a10.71,10.71,0,0,0-1.32.09q-.23.52-.3.75l-1.55,4.81a24.64,24.64,0,0,0-1,3,1.47,1.47,0,0,0,.16.52,7.51,7.51,0,0,0,1,.2l2.39.21c.13.1.2.2.2.28a.9.9,0,0,1-.06.26l-1.21,0q-1.41,0-3.27-.09l-1.23,0-1.28,0-.87,0c-.28,0-.64,0-1.08-.05v-.1A1.07,1.07,0,0,1,199.41,194.72Zm8.38-10.49c1.26.07,2.69.1,4.29.1.92,0,1.72,0,2.41-.09a12.67,12.67,0,0,0-.4-1.27c-.76-2-1.19-3.15-1.27-3.36l-1.59-4-.18-.32c-.07.14-.33.74-.77,1.8q-1.14,2.73-1.62,4.26l-.48,1.35c-.16.45-.27.77-.31,1a3.2,3.2,0,0,1-.18.55Z"/><path class="cls-4" d="M224.45,173.62v-.54c.2-.05.36-.07.48-.09l1.65-.09c1.37-.12,2.91-.22,4.61-.29.68,0,1.75,0,3.21,0a15.9,15.9,0,0,1,4.38.44,5.94,5.94,0,0,1,3,2,4.69,4.69,0,0,1,1,2.9c0,1.72-1.24,3.18-3.71,4.35l-.09.13a9.15,9.15,0,0,1,3.11,1.42A6.26,6.26,0,0,1,244,186a5.81,5.81,0,0,1,.47,2.52,6,6,0,0,1-2.38,4.65,9.79,9.79,0,0,1-6.57,2h-2.62l-2.65.08-4.11,0c-.41,0-.82,0-1.22,0v-.2a.44.44,0,0,1,.09-.31.93.93,0,0,1,.41-.18,14.08,14.08,0,0,0,2.48-.62.82.82,0,0,0,.4-.53,17.44,17.44,0,0,0,.21-3.6c0-.17,0-.39,0-.66q0-1.17,0-1.35V186q0-4.62-.11-8l0-3.52V174c-1-.14-1.88-.23-2.64-.26A7,7,0,0,1,224.45,173.62Zm7,8.84a9.12,9.12,0,0,0,1.84.17q3.81,0,5.17-1.66a5.26,5.26,0,0,0,1.35-3.3,5,5,0,0,0-.24-1.5,3.23,3.23,0,0,0-.84-1.37,3.67,3.67,0,0,0-1.51-.91,9.82,9.82,0,0,0-3.13-.51,11.23,11.23,0,0,0-2.79.33c0,.25,0,.43,0,.54s0,.45,0,1c0,.35,0,.7,0,1.05l-.05,2.12v1.26l.13,2.46Zm4.13,11.9a7.41,7.41,0,0,0,2.93-.74,5.79,5.79,0,0,0,1.29-1,5.06,5.06,0,0,0,1.16-1.74,5.13,5.13,0,0,0,.42-2,7,7,0,0,0-.29-1.77,4.8,4.8,0,0,0-1-1.85A5,5,0,0,0,238,184a8.6,8.6,0,0,0-3-.52,23.19,23.19,0,0,0-3.59.13c0,.26,0,.46,0,.59l0,.65,0,1.31v1.49a45.74,45.74,0,0,0,.2,4.86,2,2,0,0,0,1,1.3A6,6,0,0,0,235.55,194.36Z"/><path class="cls-4" d="M244.81,194.72a.93.93,0,0,1,.44-.14h.82a6.69,6.69,0,0,0,1.6-.25,2.66,2.66,0,0,0,1.06-1.15,43.45,43.45,0,0,0,2.06-5.06c.36-1,.59-1.67.68-1.89.29-.7.58-1.43.85-2.2l1.65-4.61q.39-1.08,1.86-5c.25-.66.55-1.53.9-2.63l.52,0h.61a23.94,23.94,0,0,1,1.33,3.21c.22.6.56,1.51,1,2.71l2.67,7.19,1.42,3.9c.75,2.22,1.24,3.58,1.48,4.09a2.89,2.89,0,0,0,.65,1,2.41,2.41,0,0,0,.66.21l.8.21a6.36,6.36,0,0,1,1.12.39.84.84,0,0,1,.07.29.86.86,0,0,1-.05.27h-.79c-.6,0-1.65,0-3.17-.05l-1.75,0-2.13,0-.43,0-.38,0H260a.89.89,0,0,1-.35-.11,1.27,1.27,0,0,1,.09-.47,1.08,1.08,0,0,1,.39-.12l1.84-.12a3.3,3.3,0,0,0,1.09-.2,1.67,1.67,0,0,0,.11-.47,7.39,7.39,0,0,0-.46-1.63c-.21-.58-.39-1.14-.55-1.67s-.78-2.25-1.87-5.18a6.92,6.92,0,0,0-1.27-.13l-3.76,0-1.11,0a10.68,10.68,0,0,0-1.31.09,5.6,5.6,0,0,0-.3.75L251,190.75a23.79,23.79,0,0,0-1,3,1.73,1.73,0,0,0,.16.52,8.1,8.1,0,0,0,1,.2l2.39.21a.44.44,0,0,1,.19.28,1.25,1.25,0,0,1-.05.26l-1.22,0q-1.4,0-3.27-.09l-1.23,0-1.28,0-.86,0c-.28,0-.65,0-1.09-.05v-.1A1.07,1.07,0,0,1,244.81,194.72Zm8.39-10.49c1.25.07,2.68.1,4.29.1q1.36,0,2.4-.09a10.52,10.52,0,0,0-.4-1.27l-1.26-3.36-1.6-4-.18-.32c-.07.14-.32.74-.77,1.8q-1.12,2.73-1.62,4.26c-.15.45-.31.9-.47,1.35a8,8,0,0,0-.31,1,3.27,3.27,0,0,1-.19.55Z"/><path class="cls-4" d="M269.86,173.89l0-.84c1.82,0,3.15-.05,4-.14a6.76,6.76,0,0,1,.69-.06l.47,0a10.1,10.1,0,0,1,1.37,1.4l.32.35,3.71,4.08.53.63c.75.87,1.43,1.62,2,2.24s1.82,1.9,3.6,3.86l4.2,4.64c.41.46.94,1,1.58,1.7l0-.28c-.07-1.62-.11-2.48-.11-2.57l.07-1,0-1.65v-.75c0-.48,0-2-.12-4.43,0-.34-.06-1-.15-1.91s-.12-1.77-.12-2.48a5.59,5.59,0,0,0-.23-2.24c-.1-.15-.6-.31-1.49-.47-.21,0-.54-.05-1-.11a5.62,5.62,0,0,1-.93-.08.75.75,0,0,1-.28-.3,1.63,1.63,0,0,1,.16-.53,3.44,3.44,0,0,1,.93-.14,6.77,6.77,0,0,1,1.22.13,8.26,8.26,0,0,0,1.31.12c.54,0,1.38,0,2.52-.11.64,0,1.09-.07,1.33-.07h.3l0,.55a2.22,2.22,0,0,1-.78.14,4.22,4.22,0,0,0-.91.15,1.92,1.92,0,0,0-.76.34,1.36,1.36,0,0,0-.42.92l.19,5.53.14,2.54v.73l.1,3.52q.11,3.6.11,6.26c0,.39,0,1.22-.07,2.51l-.82.07q-.62-.71-4.24-4.41c-.56-.57-.94-1-1.14-1.21l-1.52-1.73q-.87-1-1.14-1.23l-.38-.38q-1.92-2.18-5-5.43-.82-.87-2.43-2.73c-.67-.78-1.09-1.26-1.26-1.43a5.75,5.75,0,0,0-.73-.59l-.05.59q0,3.41.18,9.41l.12,5.79c0,.5,0,1,.09,1.42l.61.14c1.12.11,2.21.26,3.29.47a1.17,1.17,0,0,0,.21.16l0,.67a1.47,1.47,0,0,1-.45.08l-.48,0c-1.16-.09-2.57-.14-4.23-.14-1.18,0-2.21,0-3.1.09h-.24l-.46,0,0-.53.46-.21.83-.12a7.85,7.85,0,0,0,1.61-.35,1.2,1.2,0,0,0,.55-.37,23.91,23.91,0,0,0,.19-3.53c0-.72,0-2.05-.05-4v-2.38l0-5a21,21,0,0,0-.23-3.92,1.1,1.1,0,0,0-.44-.56,3.69,3.69,0,0,0-1.74-.59C270.54,174,270.07,173.94,269.86,173.89Zm18.47-6.74h.51c0,.13,0,.22,0,.28a3.42,3.42,0,0,1-.83,2.4,2.75,2.75,0,0,1-2.07.89,3.76,3.76,0,0,1-1.3-.26,7.13,7.13,0,0,1-1.42-.82,7.93,7.93,0,0,0-1.36-.79,2.61,2.61,0,0,0-1-.23,1.33,1.33,0,0,0-1,.42,3.21,3.21,0,0,0-.58,1.64h-.5a.68.68,0,0,1,0-.19,4.05,4.05,0,0,1,.72-2.26,2.46,2.46,0,0,1,2.2-1.08,3.28,3.28,0,0,1,1.17.21,10.26,10.26,0,0,1,1.59.89,5.05,5.05,0,0,0,2.32,1,1.27,1.27,0,0,0,.95-.44A3.07,3.07,0,0,0,288.33,167.15Z"/><path class="cls-4" d="M297,194.72a.93.93,0,0,1,.44-.14h.82a6.8,6.8,0,0,0,1.6-.25,2.64,2.64,0,0,0,1.05-1.15,41.74,41.74,0,0,0,2.06-5.06c.37-1,.59-1.67.69-1.89.29-.7.57-1.43.84-2.2l1.65-4.61q.39-1.08,1.87-5c.24-.66.54-1.53.9-2.63l.51,0H310a23.94,23.94,0,0,1,1.33,3.21c.21.6.56,1.51,1,2.71l2.67,7.19,1.42,3.9c.75,2.22,1.24,3.58,1.47,4.09a3,3,0,0,0,.66,1,2.15,2.15,0,0,0,.65.21l.8.21a6.55,6.55,0,0,1,1.13.39.84.84,0,0,1,.07.29,1.31,1.31,0,0,1-.05.27h-.79c-.6,0-1.66,0-3.17-.05l-1.76,0-2.12,0-.43,0-.38,0h-.39a.85.85,0,0,1-.35-.11,1.27,1.27,0,0,1,.09-.47,1.1,1.1,0,0,1,.38-.12l1.85-.12a3.36,3.36,0,0,0,1.09-.2,1.57,1.57,0,0,0,.1-.47,7.73,7.73,0,0,0-.45-1.63c-.21-.58-.4-1.14-.56-1.67s-.78-2.25-1.86-5.18a7.09,7.09,0,0,0-1.27-.13l-3.76,0-1.11,0a10.71,10.71,0,0,0-1.32.09q-.23.52-.3.75l-1.55,4.81a24.64,24.64,0,0,0-1,3,1.47,1.47,0,0,0,.16.52,7.51,7.51,0,0,0,1,.2l2.39.21c.13.1.2.2.2.28a.9.9,0,0,1-.06.26l-1.21,0q-1.41,0-3.27-.09l-1.23,0-1.28,0-.86,0c-.29,0-.65,0-1.09-.05v-.1A1.07,1.07,0,0,1,297,194.72Zm8.38-10.49c1.26.07,2.69.1,4.29.1.92,0,1.72,0,2.41-.09a12.67,12.67,0,0,0-.4-1.27c-.76-2-1.18-3.15-1.27-3.36l-1.59-4-.18-.32c-.07.14-.33.74-.77,1.8-.76,1.82-1.29,3.24-1.62,4.26-.16.45-.31.9-.48,1.35s-.27.77-.31,1a3.2,3.2,0,0,1-.18.55Z"/><path class="cls-4" d="M335.5,173.69c.09.77.14,1.22.14,1.33l-.07,1.56c0,.67-.06,1.09-.09,1.28a.89.89,0,0,1-.27.07l-.15,0a6.36,6.36,0,0,0-1.91-3.57,5,5,0,0,0-3.28-1.12,4.86,4.86,0,0,0-3.29,1.12,3.4,3.4,0,0,0-1.28,2.61,3,3,0,0,0,.9,2.08,19.8,19.8,0,0,0,4.58,2.83,28.37,28.37,0,0,1,4,2.37,6.2,6.2,0,0,1,1.83,2.12,5.89,5.89,0,0,1,.61,2.7,6.79,6.79,0,0,1-1,3.52,6.28,6.28,0,0,1-2.63,2.48,9.85,9.85,0,0,1-4.38.83,13.87,13.87,0,0,1-4.55-.75,4.79,4.79,0,0,1-1.56-.74.82.82,0,0,1-.29-.59c0-.13,0-.29,0-.49.16-1.38.25-2.51.26-3.39a3.18,3.18,0,0,1,.13-1,.27.27,0,0,1,.26-.12.31.31,0,0,1,.25.11.86.86,0,0,1,.14.43,5.9,5.9,0,0,0,2,3.85,5.77,5.77,0,0,0,4.06,1.7,5.63,5.63,0,0,0,2.56-.58,4.29,4.29,0,0,0,1.83-1.67,4.12,4.12,0,0,0,.66-2.12,3.88,3.88,0,0,0-1-2.59,13.82,13.82,0,0,0-4-2.74,30.17,30.17,0,0,1-3.94-2.29,8.69,8.69,0,0,1-2.21-2.48,4.84,4.84,0,0,1-.55-2.36,5.29,5.29,0,0,1,1.93-4.12,7.59,7.59,0,0,1,5.19-1.69,10.4,10.4,0,0,1,3.09.4A7.58,7.58,0,0,1,335.5,173.69Z"/></g></g></svg>